<?xml version="1.0" encoding="utf-8"?>
<!-- Generator: Adobe Illustrator 23.0.3, SVG Export Plug-In . SVG Version: 6.00 Build 0)  -->
<svg version="1.1" id="Layer_1" xmlns="http://www.w3.org/2000/svg" xmlns:xlink="http://www.w3.org/1999/xlink" x="0px" y="0px"
	 viewBox="0 0 305.5 92.6" style="enable-background:new 0 0 305.5 92.6;" xml:space="preserve">
<style type="text/css">
	.st0{fill:#080808;}
</style>
<g>
	<g>
		<path class="st0" d="M135,80.2h-3.4l-0.6,1.6h-1.8l3.1-8.6h2l3.1,8.6h-1.8L135,80.2z M133.2,75.2l-1.2,3.6h2.5L133.2,75.2z"/>
		<path class="st0" d="M139.3,73.2h1.7v8.6h-1.7V73.2z"/>
		<path class="st0" d="M152.4,80.2H149l-0.6,1.6h-1.8l3.1-8.6h2l3.1,8.6H153L152.4,80.2z M150.7,75.2l-1.2,3.6h2.5L150.7,75.2z"/>
		<path class="st0" d="M164.7,75.8h-2c-0.4-0.7-1.1-1.1-2-1.1c-1.5,0-2.6,1.1-2.6,2.8c0,1.8,1.1,2.8,2.7,2.8c1.3,0,2.2-0.8,2.4-2h-3
			v-1.3h4.7v1.5c-0.3,1.8-1.9,3.4-4.2,3.4c-2.5,0-4.4-1.8-4.4-4.4s1.9-4.4,4.4-4.4C162.6,73.1,164.2,74.1,164.7,75.8z"/>
		<path class="st0" d="M172,74.6h-3.3v2.2h2.9v1.4h-2.9v2.3h3.3v1.4h-5v-8.6h5V74.6z"/>
		<path class="st0" d="M181.7,73.2v8.6h-1.7L176,76v5.9h-1.7v-8.6h1.7l3.9,5.9v-5.9H181.7z"/>
		<path class="st0" d="M183.7,73.2h6.3v1.4h-2.3v7.2H186v-7.2h-2.3V73.2z"/>
		<path class="st0" d="M195,82c-1.8,0-3.2-0.9-3.2-2.6h1.9c0,0.7,0.5,1.1,1.3,1.1c0.8,0,1.3-0.4,1.3-1.1c0-1.9-4.4-0.7-4.4-3.9
			c0-1.6,1.3-2.5,3-2.5c1.8,0,3,0.9,3.1,2.5H196c0-0.6-0.5-1-1.2-1c-0.7,0-1.2,0.3-1.2,1c0,1.7,4.4,0.8,4.4,3.8
			C198,80.7,196.9,82,195,82z"/>
		<path class="st0" d="M203.9,73.2h2l2.7,6.4l2.7-6.4h2v8.6h-1.7v-5.6l-2.3,5.6H208l-2.3-5.6v5.6h-1.7V73.2z"/>
		<path class="st0" d="M221.1,80.2h-3.4l-0.6,1.6h-1.8l3.1-8.6h2l3.1,8.6h-1.8L221.1,80.2z M219.4,75.2l-1.2,3.6h2.5L219.4,75.2z"/>
		<path class="st0" d="M228.6,73.2c2.1,0,3.1,1.2,3.1,2.6c0,1.1-0.6,2.1-2,2.5l2.1,3.5h-2l-1.9-3.4h-0.8v3.4h-1.7v-8.6H228.6z
			 M228.6,74.7h-1.4v2.5h1.4c1,0,1.4-0.5,1.4-1.3C230,75.2,229.5,74.7,228.6,74.7z"/>
		<path class="st0" d="M235.8,78v3.8h-1.7v-8.6h1.7v3.9l3.1-3.9h2.1l-3.6,4.3l3.7,4.4h-2.2L235.8,78z"/>
		<path class="st0" d="M248,74.6h-3.3v2.2h2.9v1.4h-2.9v2.3h3.3v1.4h-5v-8.6h5V74.6z"/>
		<path class="st0" d="M249.9,73.2h6.3v1.4h-2.3v7.2h-1.7v-7.2h-2.3V73.2z"/>
		<path class="st0" d="M261.4,78.6h-1.4v3.3h-1.7v-8.6h3.2c2.1,0,3.1,1.2,3.1,2.7C264.5,77.2,263.6,78.6,261.4,78.6z M261.3,77.2
			c1,0,1.4-0.5,1.4-1.2c0-0.8-0.4-1.3-1.4-1.3h-1.4v2.5H261.3z"/>
		<path class="st0" d="M268.2,73.2v7.3h2.8v1.4h-4.6v-8.6H268.2z"/>
		<path class="st0" d="M278.2,80.2h-3.4l-0.6,1.6h-1.8l3.1-8.6h2l3.1,8.6h-1.8L278.2,80.2z M276.5,75.2l-1.2,3.6h2.5L276.5,75.2z"/>
		<path class="st0" d="M286.4,73.1c1.9,0,3.5,1,4.1,2.8h-2c-0.4-0.8-1.1-1.2-2.1-1.2c-1.5,0-2.6,1.1-2.6,2.9c0,1.7,1.1,2.9,2.6,2.9
			c0.9,0,1.7-0.4,2.1-1.2h2c-0.6,1.8-2.1,2.8-4.1,2.8c-2.5,0-4.4-1.8-4.4-4.4S283.9,73.1,286.4,73.1z"/>
		<path class="st0" d="M297.7,74.6h-3.3v2.2h2.9v1.4h-2.9v2.3h3.3v1.4h-5v-8.6h5V74.6z"/>
	</g>
</g>
<g>
	<g>
		<g>
			<g>
				<g>
					<path class="st0" d="M52.2,23c-5.6-1-10.1,0.7-12.5,2c-3.5-1.7-7.5-2.8-11.8-2.8c-12,0-21.7,7.8-21.7,17.2
						c0,8,6.8,14.7,16.2,16.6v4.4c-6.3,1.8-11,6.6-11,12.3c0,7.2,7.5,13.1,16.5,13.1s16.5-5.9,16.5-13.1c0-5.8-4.5-10.6-11-12.3
						v-4.2c9.2-2,16.2-8.7,16.2-16.6c0-2.7-0.8-5.2-2.1-7.5c2.4,0,4.8,1,4.8,1L52.2,23z M27.7,77.1c-3.1,0-5.5-2-5.5-4.2
						s2.4-4.2,5.5-4.2c3.1,0,5.5,2,5.5,4.2S30.8,77.1,27.7,77.1z M27.7,46.1c-4.5,0-8.3-3-8.3-6.5s3.8-6.5,8.3-6.5
						c4.5,0,8.3,3,8.3,6.5S32.2,46.1,27.7,46.1z"/>
					<path class="st0" d="M123.1,23c-5.6-1-10.1,0.7-12.5,2c-3.5-1.7-7.5-2.8-11.8-2.8c-12,0-21.7,7.8-21.7,17.2
						c0,8,6.8,14.7,16.2,16.6v4.4c-6.3,1.8-11,6.6-11,12.3c0,7.2,7.5,13.1,16.5,13.1s16.5-5.9,16.5-13.1c0-5.8-4.5-10.6-11-12.3
						v-4.2c9.2-2,16.2-8.7,16.2-16.6c0-2.7-0.8-5.2-2.1-7.5c2.4,0,4.8,1,4.8,1V23L123.1,23z M98.6,77.1c-3.1,0-5.5-2-5.5-4.2
						s2.4-4.2,5.5-4.2s5.5,2,5.5,4.2C104.1,75.2,101.7,77.1,98.6,77.1z M98.6,46.1c-4.5,0-8.3-3-8.3-6.5s3.8-6.5,8.3-6.5
						c4.5,0,8.3,3,8.3,6.5C106.9,43.2,103.2,46.1,98.6,46.1z"/>
					<g>
						<g>
							<path class="st0" d="M64.6,19.8c2.3,0,4.1-0.8,5.5-2.3c1.3-1.4,1.8-3.2,1.8-5.2s-0.7-3.8-1.8-5.2c-1.3-1.4-3.2-2.3-5.5-2.3
								c-2.3,0-4.1,0.7-5.5,2.1c-1.3,1.4-2,3.2-2,5.2s0.7,3.8,2,5.2C60.4,18.9,62.3,19.8,64.6,19.8z"/>
							<polygon class="st0" points="59.7,22 58.4,22 58.4,23.3 58.4,64.2 58.4,65.3 59.7,65.3 69.5,65.3 70.5,65.3 70.5,64.2 
								70.5,23.3 70.5,22 69.5,22 							"/>
						</g>
					</g>
				</g>
			</g>
			<g>
				<path d="M167.5,64.6c-2.1,0-4.1,0-6.2,0c0-0.7-0.1-1.3-0.1-1.8c0-5.8,0-11.4,0-17.1c0-2.1-0.1-4.4-0.8-6.3c-2-6.8-7-9.4-13.8-9
					c-0.8,0-1.6,0.1-2.4,0.4c-3.8,1-6.3,3.4-8,6.9c-1,2.3-1.3,4.7-1.3,7.2c0,6.1,0,11.8,0,17.9c0,0.7,0,1.3,0,2c-2.1,0-4.1,0-6.2,0
					c0-0.6-0.1-1-0.1-1.3c0-6.5-0.1-13,0-19.4c0.1-5.1,1.6-9.7,5.2-13.5c4.5-4.8,10.4-6.3,16.8-5.6C160,26,166.2,33,167,42.2
					c0.1,1.4,0.3,3,0.3,4.4c0,5.4,0,10.7,0,16.1C167.5,63.2,167.5,63.9,167.5,64.6z"/>
				<path d="M264.7,14.7c0.7,0,1.3-0.1,1.8-0.1c1.4,0,2.8,0,4.4,0c0,3.9,0,7.9,0,11.7c1.6,0.6,3.1,0.1,4.5,0.3c1.4,0,3,0,4.5,0
					c1.4,0,3,0,4.5,0c0,1.8,0,3.7,0,5.6c-2.3,0-4.4,0-6.6,0c-2.3,0-4.4,0-6.6,0c-0.1,0.4-0.1,0.6-0.1,0.8c0,4.7,0,9.3,0.1,14.1
					c0,1.8,0.6,3.8,1.4,5.5c1.8,3.9,5.1,6.3,9.6,6.9c1.4,0.1,3,0.3,4.5,0.4c0,1.7,0,3.5,0,5.4c-1.3,0-2.5,0.1-3.8,0
					c-9.6-0.8-16.8-7.6-17.8-17.2c-0.1-1.3-0.3-2.8-0.3-4.1c0-9,0-18.2,0-27.2C264.7,16,264.7,15.4,264.7,14.7z"/>
				<path d="M292,25.1c2.1,0,3.9,0,5.9,0c0.4,1.3,0.6,35.9,0.1,39.5c-2,0-3.8,0-6.1,0C292,51.4,292,38.4,292,25.1z"/>
				<path d="M295,20.8c-3,0.3-4.7-1.8-4.7-4.5c-0.1-2.7,1.8-4.5,4.5-4.5c3,0,4.7,1.7,4.7,4.5S297.8,20.8,295,20.8z"/>
				<path d="M258.6,47.8c0-2.8-0.1-5.8-0.8-8.6c-1.8-6.9-5.9-11.7-13-13.8c-3.5-1-7.2-1.1-10.7-0.4c-6.8,1.3-11.8,4.8-14.4,11.4
					c-1.4,3.7-1.8,7.3-1.4,11.4c1,8.3,6.8,16.5,17.1,17.5c2.1,0.3,3.9,0.1,5.9-0.3l0,0c5.1-1,10.1-5.1,11.8-6.5
					c0.6,1.8,1.1,3.7,1.6,5.5c0.1,0.6,0.3,1.1,1,1.1c1.7,0,3.4,0,5.4,0C259.2,59,258.6,53.5,258.6,47.8z M234.4,59.3
					c-5.8-1.3-9.4-5.8-10-11.8c-0.1-0.8,0-1.7,0-2.5c-0.1-2.7,0.3-5.2,1.4-7.8c1.6-3.2,4.1-5.2,7.5-6.3c3.1-1,6.3-1,9.3-0.3
					c3.8,0.8,6.3,3,7.9,6.3c2.1,4.5,2.4,9.3,1,14.1c-1.3,4.1-4.1,6.6-8.2,7.9C240.5,59.8,237.4,59.8,234.4,59.3z"/>
				<path d="M215.1,64c-1.6-4.9-2-10.1-2.1-15.2c0-2.8-0.1-5.5-0.7-8.3c-1.3-8.3-6.6-13.8-14.7-15.5c-3.1-0.7-6.2-0.7-9.2-0.1
					c-7.9,1.4-13.1,5.9-15.4,13.8c-0.8,2.8-1,5.6-0.7,8.6c0.8,8.3,6.3,16.5,16.6,17.9c2.1,0.3,4.1,0.3,6.1-0.1c0.1,0,0.3,0,0.6-0.1
					c4.9-1,9.9-4.8,11.7-6.3c0.7,2.1,1.3,4.2,1.8,6.3c2,0,3.8,0,5.9,0C215.1,64.3,215.1,64.2,215.1,64z M188.7,59.3
					c-5.4-1.3-8.6-4.5-9.7-9.9c-0.3-1.4-0.4-3-0.6-4.4c0.1-2.3,0.4-4.5,1.3-6.5c1.4-3.8,4.2-6.3,8.2-7.5c3-0.8,5.9-0.8,8.9-0.3
					c4.1,0.8,6.8,3.4,8.5,7.2c1.7,4.2,2,8.7,0.7,13.2c-1.3,4.4-4.1,7-8.6,8.2C194.5,59.8,191.6,59.8,188.7,59.3z"/>
			</g>
		</g>
	</g>
</g>
</svg>
